<svg id="Capa_1" enable-background="new 0 0 512 512" height="512" viewBox="0 0 512 512" width="512" xmlns="http://www.w3.org/2000/svg"><g><g><path d="m295.906 55h-79.81c-4.142 0-7.5-3.358-7.5-7.5s3.358-7.5 7.5-7.5h79.81c4.143 0 7.5 3.358 7.5 7.5s-3.358 7.5-7.5 7.5z"/><path d="m365.58 512h-234.16c-37.76 0-68.48-30.72-68.48-68.48v-375.04c0-37.76 30.72-68.48 68.48-68.48h249.16c37.76 0 68.479 30.72 68.479 68.48v375.04c0 31.468-21.291 58.783-51.776 66.425-4.013 1.006-8.091-1.433-9.099-5.451-1.007-4.018 1.434-8.092 5.452-9.099 23.8-5.966 40.423-27.298 40.423-51.875v-375.04c0-14.286-5.562-27.716-15.663-37.817s-23.53-15.663-37.816-15.663h-249.16c-29.489 0-53.48 23.991-53.48 53.48v375.04c0 29.489 23.991 53.48 53.48 53.48h234.16c4.143 0 7.5 3.358 7.5 7.5s-3.357 7.5-7.5 7.5z"/><path d="m366.781 472h-221.561c-23.313 0-42.28-18.967-42.28-42.28v-332.44c0-4.142 3.358-7.5 7.5-7.5s7.5 3.358 7.5 7.5v332.44c0 15.042 12.238 27.28 27.28 27.28h221.56c15.042 0 27.279-12.238 27.279-27.28v-347.44c0-15.042-12.237-27.28-27.279-27.28h-26.854c-2.869 21.204-21.089 37.6-43.066 37.6h-81.71c-21.978 0-40.197-16.396-43.066-37.6h-26.864c-10.573 0-20.288 6.199-24.75 15.793-1.746 3.756-6.207 5.385-9.963 3.637-3.756-1.747-5.384-6.208-3.637-9.963 6.913-14.863 21.967-24.467 38.35-24.467h33.97c4.142 0 7.5 3.358 7.5 7.5v1.64c0 15.693 12.767 28.46 28.46 28.46h81.71c15.692 0 28.46-12.767 28.46-28.46v-1.64c0-4.142 3.357-7.5 7.5-7.5h33.96c23.312 0 42.279 18.967 42.279 42.28v347.44c.001 23.313-18.966 42.28-42.278 42.28z"/></g><g><path d="m208.574 316.489c-1.919 0-3.839-.732-5.303-2.197l-52.989-52.989c-2.929-2.929-2.929-7.678 0-10.606l52.989-52.989c2.929-2.929 7.678-2.929 10.606 0 2.929 2.929 2.929 7.678 0 10.606l-47.685 47.686 47.686 47.686c2.929 2.929 2.929 7.678 0 10.606-1.465 1.465-3.384 2.197-5.304 2.197z"/><path d="m303.426 316.489c-1.919 0-3.839-.732-5.304-2.197-2.929-2.929-2.929-7.678 0-10.606l47.687-47.686-47.687-47.686c-2.929-2.929-2.929-7.678 0-10.606 2.93-2.929 7.678-2.929 10.607 0l52.989 52.989c2.929 2.929 2.929 7.678 0 10.606l-52.989 52.989c-1.464 1.465-3.384 2.197-5.303 2.197z"/><path d="m230.9 351.667c-.659 0-1.328-.087-1.994-.271-3.994-1.099-6.341-5.227-5.242-9.221l48.501-176.33c1.099-3.993 5.226-6.34 9.221-5.242 3.993 1.099 6.341 5.227 5.242 9.221l-48.501 176.33c-.916 3.328-3.935 5.513-7.227 5.513z"/></g></g></svg>