<svg id="Layer_1" enable-background="new 0 0 512 512" height="512" viewBox="0 0 512 512" width="512" xmlns="http://www.w3.org/2000/svg"><g id="XMLID_420_"><g id="XMLID_350_"><path id="XMLID_353_" d="m256.004 102c-99.804 0-181 81.196-181 181s81.196 181 181 181 181-81.196 181-181-81.196-181-181-181zm0 342c-88.776 0-161-72.224-161-161s72.224-161 161-161 161 72.224 161 161-72.224 161-161 161z"/><path id="XMLID_356_" d="m337.003 188.475-111.86 59.534c-1.757.935-3.194 2.373-4.129 4.129l-59.534 111.86c-2.066 3.882-1.354 8.659 1.756 11.77 1.923 1.922 4.482 2.929 7.074 2.929 1.601 0 3.213-.384 4.695-1.173l111.86-59.534c1.757-.935 3.194-2.373 4.129-4.129l59.534-111.86c2.066-3.882 1.354-8.659-1.756-11.77-3.11-3.109-7.886-3.821-11.769-1.756zm-80.999 116.525c-12.131 0-22-9.869-22-22s9.869-22 22-22 22 9.869 22 22-9.869 22-22 22zm-38.123-4.406c4.188 9.038 11.492 16.342 20.53 20.53l-43.887 23.357zm76.246-35.188c-4.188-9.038-11.492-16.342-20.53-20.53l43.887-23.357z"/><path id="XMLID_372_" d="m447.269 156.989c-3.043-4.609-9.248-5.879-13.855-2.835-4.609 3.043-5.878 9.246-2.835 13.855 54.379 82.361 43.113 192.875-26.789 262.777-39.475 39.474-91.96 61.214-147.786 61.214s-108.311-21.74-147.785-61.214c-39.475-39.475-61.215-91.96-61.215-147.786s21.74-108.311 61.215-147.785c69.659-69.659 179.923-81.088 262.182-27.18 4.62 3.029 10.818 1.737 13.845-2.882s1.737-10.818-2.882-13.845c-28.275-18.531-60.421-30.442-93.754-35.088 3.421-5.605 5.395-12.186 5.395-19.219 0-20.402-16.598-37-37-37s-37 16.598-37 37c0 7.021 1.966 13.591 5.376 19.19-49.117 6.844-95.087 29.666-130.304 64.882-43.253 43.252-67.073 100.759-67.073 161.927s23.82 118.675 67.072 161.927c43.253 43.253 100.76 67.073 161.928 67.073s118.675-23.82 161.928-67.073c37.528-37.528 60.976-87.242 66.024-139.983 4.982-52.034-8.048-104.579-36.687-147.955zm-191.265-136.989c9.374 0 17 7.626 17 17s-7.626 17-17 17-17-7.626-17-17 7.626-17 17-17z"/><path id="XMLID_373_" d="m256.004 178.543c5.523 0 10-4.477 10-10v-12.543c0-5.523-4.477-10-10-10s-10 4.477-10 10v12.543c0 5.523 4.477 10 10 10z"/><path id="XMLID_374_" d="m256.004 387.457c-5.523 0-10 4.477-10 10v12.543c0 5.523 4.477 10 10 10s10-4.477 10-10v-12.543c0-5.523-4.477-10-10-10z"/><path id="XMLID_376_" d="m360.461 283c0 5.523 4.477 10 10 10h12.543c5.523 0 10-4.477 10-10s-4.477-10-10-10h-12.543c-5.523 0-10 4.477-10 10z"/><path id="XMLID_377_" d="m141.547 273h-12.543c-5.523 0-10 4.477-10 10s4.477 10 10 10h12.543c5.523 0 10-4.477 10-10s-4.477-10-10-10z"/><path id="XMLID_378_" d="m410.784 138.07c2.64 0 5.21-1.07 7.08-2.93 1.86-1.86 2.93-4.44 2.93-7.07s-1.07-5.21-2.93-7.07c-1.87-1.86-4.44-2.93-7.08-2.93-2.63 0-5.21 1.07-7.07 2.93s-2.93 4.44-2.93 7.07 1.07 5.21 2.93 7.07 4.44 2.93 7.07 2.93z"/></g></g></svg>